# xmcd
#
# Track frame offsets:
#	150
#	121169
#	148528
#	189842
#	220693
#
# Disc length: 3370 seconds
#
# Revision: 0
# Processed by: cddbd v1.5.2PL0 Copyright (c) Steve Scherf et al.
# Submitted via: audiograbber 1.83.01
#
DISCID=3d0d2805
DTITLE=Grateful Dead - 90-07-12 RFK Stadium, Washington DC
DYEAR=1900
DGENRE=
TTITLE0=Drums > Jam >
TTITLE1=All Along The Watchtower
TTITLE2=Dear Mr Fantasy > Hey Jude Reprise
TTITLE3=Touch Of Gray
TTITLE4=The Weight
EXTD=
EXTT0=
EXTT1=
EXTT2=
EXTT3=
EXTT4=
PLAYORDER=
